<svg viewBox="0 0 1920 1080" xmlns="http://www.w3.org/2000/svg"><path d="m-2622.5 504.5v-360h1193.923a12.2 12.2 0 0 0 9.242-4.151l33.157-39.7a12.215 12.215 0 0 1 9.242-4.151h69.185a12.2 12.2 0 0 1 9.243 4.151l33.235 39.7a12.236 12.236 0 0 0 9.212 4.151h553.561v360zm1382.44-424a12.231 12.231 0 0 1 -9.212-4.15l-33.236-39.7a12.2 12.2 0 0 0 -9.242-4.151h-69.185a12.213 12.213 0 0 0 -9.242 4.151l-33.157 39.7a12.2 12.2 0 0 1 -9.242 4.15h-1209.924v-656h1920v656z" transform="translate(2622.5 575.5)"/></svg>