<svg height="800" viewBox="0 0 1280 800" width="1280" xmlns="http://www.w3.org/2000/svg" xmlns:xlink="http://www.w3.org/1999/xlink"><clipPath id="a"><path d="m0 0h1280v800h-1280z"/></clipPath><g clip-path="url(#a)"><path d="m0 0h1280v800h-1280z" fill="#fff"/><path d="m0 0h1280v800h-1280z" fill="#5d3e5d"/><g fill="#ddd933" stroke="#fdfdfd" stroke-width="8" transform="translate(424 536)"><rect height="160" rx="80" stroke="none" width="440"/><rect fill="none" height="152" rx="76" width="432" x="4" y="4"/></g><text fill="#5d3e5d" font-family="GloriaHallelujah, Gloria Hallelujah, Comic Sans MS, sans-serif" font-size="64" transform="translate(423.5 550)"><tspan x="128.219" y="90">Start</tspan></text><path d="m-216.12 1161.538c-8.914 0-34.436 20.206-24.475 28.744s19.637 8.253 27.321 6.83 21.914-3.7 19.067-13.091-7.683-22.483-21.913-22.483z" fill="#fdfdfd" stroke="#fdfdfd" stroke-linecap="round" stroke-linejoin="round" stroke-width="10" transform="translate(737.285 -658.404)"/><path d="m-215.551 1071.313c-1.416.994-3.607 8.829-4.435 20.413s-.341 14.6-.166 17.323c.188 2.92.893 7.815 2.915 6.727s1.917-8.65 6.118-23.739c1.798-6.459 4.819-27.222-4.432-20.724z" fill="#fdfdfd" stroke="#fdfdfd" stroke-linecap="round" stroke-linejoin="round" stroke-width="10" transform="translate(742.634 -607.702)"/><path d="m-395.535 1160.755c8.914 0 34.435 20.206 24.475 28.744s-19.637 8.253-27.321 6.83-21.913-3.7-19.068-13.092 7.684-22.482 21.914-22.482z" fill="#fdfdfd" stroke="#fdfdfd" stroke-linecap="round" stroke-linejoin="round" stroke-width="10" transform="translate(990.219 -657.97)"/><path d="m-352.6 1081.612c1.416.995 3.608 8.829 4.435 20.413s1.357 17.647 3.425 19.716 1.241 5.328-.781 4.239-7.311-8.555-11.511-23.644c-1.8-6.459-4.825-27.222 4.432-20.724z" fill="#fdfdfd" stroke="#fdfdfd" stroke-linecap="round" stroke-linejoin="round" stroke-width="10" transform="translate(938.744 -613.411)"/><path d="m-349.242 910.353c10.544.172 39.617 1.5 55.423 21.8s12.549 31.783 9.952 40.339.07 22.333-31.772 20.375c-30.367-1.867-51.307-7.726-65.857-6.52s-29.684 4.027-31.43-15.1-2.641-37.581 6.207-45.587 34.491-15.681 57.477-15.307z" fill="#fdfdfd" stroke="#fdfdfd" stroke-linecap="round" stroke-linejoin="round" stroke-width="10" transform="translate(901.45 -519.164)"/><path d="m-281.426 895.091c-.9-4.207 1.434-9.176 2.581-11.47s-19.786-5.735-18.925-1.721 2.581 4.3 2.294 8.029-7.184 9.4 3.62 10 11.504.193 10.43-4.838z" fill="#fdfdfd" stroke="#fdfdfd" stroke-linecap="round" stroke-linejoin="round" stroke-width="10" transform="translate(846.782 -502.376)"/><path d="m-365.321 742.78c-26.742 0-75.769 8.914-80.226 13.371s-4.453 8.914-4.453 26.742 0 22.285 13.371 22.285 57.941 0 89.14 4.457 40.113 8.914 49.027 0 8.914-49.027 0-53.484-44.574-13.371-66.859-13.371z" fill="#fdfdfd" stroke="#fdfdfd" stroke-linecap="round" stroke-linejoin="round" stroke-width="10" transform="translate(927.552 -426.286)"/><path d="m-368.262 776.151c-3.517-2.906-17.9-12.449-26.742-13.371" fill="#fdfdfd" stroke="#fdfdfd" stroke-linecap="round" stroke-linejoin="round" stroke-width="10" transform="translate(979.52 -437.372)"/><path d="m-203.272 774.757c3.787-2.545 19.044-10.622 27.931-10.667" fill="#fdfdfd" stroke="#fdfdfd" stroke-linecap="round" stroke-linejoin="round" stroke-width="10" transform="translate(701.144 -438.098)"/><path d="m-365.118 802.186c3.661 6.643-4.336 17.737-10.839 16.358s-21.877-6.7-21.877-15.57 2.956-15.176 11.234-13.993 16.161 3.548 21.482 13.205z" fill="#fdfdfd" stroke="#fdfdfd" stroke-linecap="round" stroke-linejoin="round" stroke-width="10" transform="translate(976.716 -451.817)"/><path d="m-220.4 796.754c-4.453 6.14 2.112 18.137 8.737 17.572s22.537-3.949 23.632-12.749-1.06-15.424-9.42-15.273-16.477 1.524-22.949 10.45z" fill="#fdfdfd" stroke="#fdfdfd" stroke-linecap="round" stroke-linejoin="round" stroke-width="10" transform="translate(721.855 -450.409)"/><ellipse cx="6.283" cy="6.283" fill="#fdfdfd" rx="6.283" ry="6.283" stroke="#fdfdfd" stroke-miterlimit="10" stroke-width="10" transform="translate(587.745 343.175)"/><ellipse cx="1.393" cy="1.393" fill="#fdfdfd" rx="1.393" ry="1.393" transform="translate(590.94 346.265)"/><ellipse cx="6.283" cy="6.283" fill="#fdfdfd" rx="6.283" ry="6.283" stroke="#fdfdfd" stroke-miterlimit="10" stroke-width="10" transform="translate(512.261 341.444)"/><ellipse cx="1.393" cy="1.393" fill="#fdfdfd" rx="1.393" ry="1.393" transform="translate(515.456 344.534)"/><g stroke="#fdfdfd"><path d="m-281.842 852.03a40.213 40.213 0 0 1 -20.635 2.618c-9.3-1.309-17.887-3.681-20.027-5.364" fill="#fdfdfd" stroke-linecap="round" stroke-linejoin="round" stroke-width="10" transform="translate(860.788 -485.321)"/><path d="m-258.526 720.871s-2.305-14.854-5.634-18.951-6.658-7.427-10.5-8.708" fill="#fdfdfd" stroke-linecap="round" stroke-linejoin="round" stroke-width="10" transform="translate(816.146 -398.81)"/><path d="m-217.065 691.246c-6.121-1.924-9.162-13.961-1.309-14.615s15.052-1.091 14.4 1.963-5.456 15.052-13.091 12.652z" fill="#fdfdfd" stroke-linecap="round" stroke-linejoin="round" stroke-width="10" transform="translate(738.567 -389.357)"/><path d="m-225.261 651.353c-1.915-6.123 6.232-15.493 11.253-9.418s9.488 11.735 6.607 12.941-15.471 4.115-17.86-3.523z" fill="#fdfdfd" stroke-linecap="round" stroke-linejoin="round" stroke-width="10" transform="translate(742.225 -369.296)"/><path d="m-250.778 619.048c4.657-5.434 17.427-3.388 14.4 4.923s-5.958 15.858-8.536 13.881-11.673-12.025-5.864-18.804z" fill="#fdfdfd" stroke-linecap="round" stroke-linejoin="round" stroke-width="10" transform="translate(783.745 -356.026)"/><path d="m-272.847 638.392c6.358 3.285 7.3 16.184-1.486 15.145s-16.8-2.158-15.47-5.122 9.024-14.12 16.956-10.023z" fill="#fdfdfd" stroke-linecap="round" stroke-linejoin="round" stroke-width="10" transform="translate(832.345 -367.928)"/><path d="m-260.848 678.2c-.611 7.13-12.177 12.918-14.566 4.4s-4.413-16.356-1.165-16.254 16.494 2.954 15.731 11.854z" fill="#fdfdfd" stroke-linecap="round" stroke-linejoin="round" stroke-width="10" transform="translate(820.045 -383.918)"/><path d="m-231.477 692.263c-5.628 4.422-17.754-.079-13.161-7.639s8.939-14.39 11.081-11.947 9.1 14.072 2.08 19.586z" fill="#fdfdfd" stroke-linecap="round" stroke-linejoin="round" stroke-width="10" transform="translate(773.109 -387.148)"/><ellipse cx="6.274" cy="6.274" fill="#fdfdfd" rx="6.274" ry="6.274" stroke-linecap="round" stroke-linejoin="round" stroke-width="10" transform="translate(532.828 280.397)"/><path d="m-468.689 898.3c-12.568 11.521-60.234-10.374-60.234-10.374" fill="none" stroke-linecap="round" stroke-linejoin="round" stroke-width="10" transform="translate(1127.44 -484.321)"/><path d="m-536.059 794.08c.669 13.051-11.043 24.094-20.078 23.089s-15.727-14.055-14.389-21.082" fill="#fdfdfd" stroke-linecap="round" stroke-linejoin="round" stroke-width="10" transform="translate(1225.595 -454.721)"/><path d="m-126.81 931.477s-26.436 14.055-29.448 23.424 4.685 28.779 8.366 33.129" fill="#fdfdfd" stroke-linecap="round" stroke-linejoin="round" stroke-width="10" transform="translate(631.963 -530.88)"/><path d="m-138.865 1066.67c-6.024 0-12.382-4.351-12.382-8.366s13.385-4.685 19.074-3.012" fill="#fdfdfd" stroke-linecap="round" stroke-linejoin="round" stroke-width="10" transform="translate(634.788 -599.037)"/><path d="m-317.235 970.379c3.374-2.049 17.45-1.36 21.579.959 3.262 1.832 12.21 14.588-.88 14.588s-25.782 4.729-26.972-2.364 1.797-10.462 6.273-13.183z" fill="#fdfdfd" stroke-linecap="round" stroke-linejoin="round" stroke-width="10" transform="translate(859.336 -547.313)"/><path d="m-280.64 935.5c3.4-.092 7.458 2.2 8 3.193 1.958 3.628-6.339 6.024-10.77 4.789-3.925-1.096-2.741-7.836 2.77-7.982z" fill="#fdfdfd" stroke-linecap="round" stroke-linejoin="round" stroke-width="10" transform="translate(834.899 -527.758)"/><path d="m-311.207 1027.688c3.135-.815 16.319-2.419 20.073-.254s8.486 8.911 1.305 9.42-23.336 2.036-23.336-1.273-.49-7.256 1.958-7.893z" fill="#fdfdfd" stroke-linecap="round" stroke-linejoin="round" stroke-width="10" transform="translate(857.777 -580.348)"/><path d="m382.711 537.216c-9.246 0-35.719 20.959-25.387 29.815s20.369 8.561 28.339 7.085 22.73-3.838 19.778-13.579-7.97-23.321-22.73-23.321z" fill="#fdfdfd" stroke-linecap="round" stroke-linejoin="round" stroke-width="8" transform="translate(304.011 -34.911)"/><path d="m382.466 447.038c-1.469 1.031-3.742 9.158-4.6 21.174s-.354 15.145-.172 17.969c.2 3.028.926 8.107 3.024 6.977s1.989-8.972 6.346-24.624c1.864-6.7 5.001-28.234-4.598-21.496z" fill="#fdfdfd" stroke-linecap="round" stroke-linejoin="round" stroke-width="8" transform="translate(310.395 14.271)"/><path d="m203.129 536.433c9.246 0 35.719 20.959 25.387 29.815s-20.369 8.561-28.339 7.085-22.73-3.837-19.778-13.579 7.97-23.321 22.73-23.321z" fill="#fdfdfd" stroke-linecap="round" stroke-linejoin="round" stroke-width="8" transform="translate(559.851 -34.49)"/><path d="m245.469 457.336c1.469 1.031 3.742 9.158 4.6 21.174s1.408 18.305 3.553 20.451 1.288 5.527-.81 4.4-7.584-8.874-11.94-24.526c-1.865-6.702-5.002-28.235 4.597-21.499z" fill="#fdfdfd" stroke-linecap="round" stroke-linejoin="round" stroke-width="8" transform="translate(508.65 8.733)"/><path d="m251.009 286.031c10.937.178 41.094 1.556 57.489 22.612s13.016 32.968 10.323 41.843.072 23.165-32.956 21.134c-31.5-1.937-53.22-8.014-68.312-6.763s-30.79 4.177-32.6-15.663-2.739-38.981 6.439-47.286 35.774-16.265 59.617-15.877z" fill="#fdfdfd" stroke-linecap="round" stroke-linejoin="round" stroke-width="8" transform="translate(467.914 100.155)"/><path d="m317.024 271.329c-.931-4.363 1.487-9.518 2.677-11.9s-20.523-5.949-19.631-1.785 2.677 4.461 2.38 8.328-7.45 9.756 3.75 10.374 11.937.202 10.824-5.017z" fill="#fdfdfd" stroke-linecap="round" stroke-linejoin="round" stroke-width="8" transform="translate(415.536 116.441)"/><path d="m235.669 118.458c-27.739 0-78.593 9.246-83.216 13.869s-4.623 9.246-4.623 27.739 0 23.116 13.869 23.116 60.1 0 92.462 4.623 41.608 9.246 50.854 0 9.246-50.854 0-55.478-46.23-13.869-69.346-13.869z" fill="#fdfdfd" stroke-linecap="round" stroke-linejoin="round" stroke-width="8" transform="translate(493.649 190.25)"/><path d="m230.3 151.236c-4.63-.984-22.438-2.852-31.008.543" fill="#fdfdfd" stroke-linecap="round" stroke-linejoin="round" stroke-width="8" transform="translate(551.505 173.382)"/><path d="m392.393 149.033c4.657-.844 22.514-2.173 30.977 1.48" fill="#fdfdfd" stroke-linecap="round" stroke-linejoin="round" stroke-width="8" transform="translate(269.165 174.319)"/><path d="m232.241 174.514c6.139 4.921 2.862 18.723-3.919 19.974s-23.627 2.232-27.137-6.271-3.171-15.72 5.234-17.862 16.899-2.995 25.822 4.159z" fill="#fdfdfd" stroke-linecap="round" stroke-linejoin="round" stroke-width="8" transform="translate(546.418 163.164)"/><path d="m377.749 168.205c-6.679 4.157-5.066 18.251 1.519 20.3s23.2 5.023 27.69-3 5.016-15.233-3.075-18.358-16.424-4.985-26.134 1.058z" fill="#fdfdfd" stroke-linecap="round" stroke-linejoin="round" stroke-width="8" transform="translate(291.096 165.639)"/><ellipse cx="6.517" cy="6.517" fill="#fdfdfd" rx="6.517" ry="6.517" stroke-miterlimit="10" stroke-width="8" transform="translate(759.407 336.384)"/></g><ellipse cx="1.445" cy="1.445" fill="#fdfdfd" rx="1.445" ry="1.445" transform="translate(762.721 339.589)"/><ellipse cx="6.517" cy="6.517" fill="#fdfdfd" rx="6.517" ry="6.517" stroke="#fdfdfd" stroke-miterlimit="10" stroke-width="8" transform="translate(679.901 333.381)"/><ellipse cx="1.445" cy="1.445" fill="#fdfdfd" rx="1.445" ry="1.445" transform="translate(683.215 336.586)"/><path d="m317.507 231.666c-3.849 1.107-11.575.445-21.222 1.8s-15.52 2.78-20.956 1.046" fill="#fdfdfd" stroke="#fdfdfd" stroke-linecap="round" stroke-linejoin="round" stroke-width="8" transform="translate(429.148 129.379)"/><g stroke="#fdfdfd" stroke-linecap="round" stroke-linejoin="round" stroke-width="8" transform="translate(687.139 260.525)"><path d="m333.1 79.315s-2.391-15.407-5.845-19.658-6.906-7.7-10.891-9.032l24.689 2.592-35.083-18.3" fill="none" transform="translate(-295.703 -25.358)"/><ellipse cx="6.508" cy="6.508" fill="#fdfdfd" rx="6.508" ry="6.508"/></g><path d="m171.062 375.2c1.086 5.975 21.38-22.91 13.4-38.695-10.38-20.54-36.925-22.591-36.925-22.591" fill="none" stroke="#fdfdfd" stroke-linecap="round" stroke-linejoin="round" stroke-width="8" transform="translate(619.416 85.157)"/><path d="m182.267 444.562c11.47-7.2 25.27-6.278 27.383-.588s-7.349 16.336-14.092 19.243" fill="#fdfdfd" stroke="#fdfdfd" stroke-linecap="round" stroke-linejoin="round" stroke-width="8" transform="translate(579.729 17.666)"/><path d="m472.148 307.155s-27.422 14.579-30.545 24.3 4.859 29.851 8.678 34.363" fill="none" stroke="#fdfdfd" stroke-linecap="round" stroke-linejoin="round" stroke-width="8" transform="translate(197.966 88.79)"/><path d="m459.43 442.8c-6.248 0-12.843-4.513-12.843-8.678s13.884-4.86 19.785-3.124" fill="#fdfdfd" stroke="#fdfdfd" stroke-linecap="round" stroke-linejoin="round" stroke-width="8" transform="translate(201.109 22.676)"/><path d="m301.384 327.112 15.46 18.036-15.46.859 12.024 21.472" fill="#fdfdfd" stroke="#fdfdfd" stroke-linecap="round" stroke-linejoin="round" stroke-width="8" transform="translate(417.766 78.06)"/><path d="m-216.12 1161.538c-8.914 0-34.436 20.206-24.475 28.744s19.637 8.253 27.321 6.83 21.914-3.7 19.067-13.091-7.683-22.483-21.913-22.483z" fill="#ddd933" stroke="#33383d" stroke-linecap="round" stroke-linejoin="round" stroke-width="3" transform="translate(737.285 -658.404)"/><path d="m-215.551 1071.313c-1.416.994-3.607 8.829-4.435 20.413s-.341 14.6-.166 17.323c.188 2.92.893 7.815 2.915 6.727s1.917-8.65 6.118-23.739c1.798-6.459 4.819-27.222-4.432-20.724z" fill="#ddd933" stroke="#33383d" stroke-linecap="round" stroke-linejoin="round" stroke-width="3" transform="translate(742.634 -607.702)"/><path d="m-395.535 1160.755c8.914 0 34.435 20.206 24.475 28.744s-19.637 8.253-27.321 6.83-21.913-3.7-19.068-13.092 7.684-22.482 21.914-22.482z" fill="#ddd933" stroke="#33383d" stroke-linecap="round" stroke-linejoin="round" stroke-width="3" transform="translate(990.219 -657.97)"/><path d="m-352.6 1081.612c1.416.995 3.608 8.829 4.435 20.413s1.357 17.647 3.425 19.716 1.241 5.328-.781 4.239-7.311-8.555-11.511-23.644c-1.8-6.459-4.825-27.222 4.432-20.724z" fill="#ddd933" stroke="#33383d" stroke-linecap="round" stroke-linejoin="round" stroke-width="3" transform="translate(938.744 -613.411)"/><path d="m-349.242 910.353c10.544.172 39.617 1.5 55.423 21.8s12.549 31.783 9.952 40.339.07 22.333-31.772 20.375c-30.367-1.867-51.307-7.726-65.857-6.52s-29.684 4.027-31.43-15.1-2.641-37.581 6.207-45.587 34.491-15.681 57.477-15.307z" fill="#ddd933" stroke="#33383d" stroke-linecap="round" stroke-linejoin="round" stroke-width="3" transform="translate(901.45 -519.164)"/><path d="m-281.426 895.091c-.9-4.207 1.434-9.176 2.581-11.47s-19.786-5.735-18.925-1.721 2.581 4.3 2.294 8.029-7.184 9.4 3.62 10 11.504.193 10.43-4.838z" fill="#ddd933" stroke="#33383d" stroke-linecap="round" stroke-linejoin="round" stroke-width="3" transform="translate(846.782 -502.376)"/><path d="m-365.321 742.78c-26.742 0-75.769 8.914-80.226 13.371s-4.453 8.914-4.453 26.742 0 22.285 13.371 22.285 57.941 0 89.14 4.457 40.113 8.914 49.027 0 8.914-49.027 0-53.484-44.574-13.371-66.859-13.371z" fill="#ddd933" stroke="#33383d" stroke-linecap="round" stroke-linejoin="round" stroke-width="3" transform="translate(927.552 -426.286)"/><path d="m-368.262 776.151c-3.517-2.906-17.9-12.449-26.742-13.371" fill="none" stroke="#33383d" stroke-linecap="round" stroke-linejoin="round" stroke-width="3" transform="translate(979.52 -437.372)"/><path d="m-203.272 774.757c3.787-2.545 19.044-10.622 27.931-10.667" fill="none" stroke="#33383d" stroke-linecap="round" stroke-linejoin="round" stroke-width="3" transform="translate(701.144 -438.098)"/><path d="m-365.118 802.186c3.661 6.643-4.336 17.737-10.839 16.358s-21.877-6.7-21.877-15.57 2.956-15.176 11.234-13.993 16.161 3.548 21.482 13.205z" fill="#fdfdfd" stroke="#33383d" stroke-linecap="round" stroke-linejoin="round" stroke-width="3" transform="translate(976.716 -451.817)"/><path d="m-220.4 796.754c-4.453 6.14 2.112 18.137 8.737 17.572s22.537-3.949 23.632-12.749-1.06-15.424-9.42-15.273-16.477 1.524-22.949 10.45z" fill="#fdfdfd" stroke="#33383d" stroke-linecap="round" stroke-linejoin="round" stroke-width="3" transform="translate(721.855 -450.409)"/><ellipse cx="6.283" cy="6.283" fill="#33383d" rx="6.283" ry="6.283" stroke="#33383d" stroke-miterlimit="10" stroke-width="3" transform="translate(587.745 343.175)"/><ellipse cx="1.393" cy="1.393" fill="#fdfdfd" rx="1.393" ry="1.393" transform="translate(590.94 346.265)"/><ellipse cx="6.283" cy="6.283" fill="#33383d" rx="6.283" ry="6.283" stroke="#33383d" stroke-miterlimit="10" stroke-width="3" transform="translate(512.261 341.444)"/><ellipse cx="1.393" cy="1.393" fill="#fdfdfd" rx="1.393" ry="1.393" transform="translate(515.456 344.534)"/><path d="m-281.842 852.03a40.213 40.213 0 0 1 -20.635 2.618c-9.3-1.309-17.887-3.681-20.027-5.364" fill="none" stroke="#33383d" stroke-linecap="round" stroke-linejoin="round" stroke-width="3" transform="translate(860.788 -485.321)"/><path d="m-258.526 720.871s-2.305-14.854-5.634-18.951-6.658-7.427-10.5-8.708" fill="none" stroke="#33383d" stroke-linecap="round" stroke-linejoin="round" stroke-width="3" transform="translate(816.146 -398.81)"/><path d="m-217.065 691.246c-6.121-1.924-9.162-13.961-1.309-14.615s15.052-1.091 14.4 1.963-5.456 15.052-13.091 12.652z" fill="#fabb00" stroke="#33383d" stroke-linecap="round" stroke-linejoin="round" stroke-width="3" transform="translate(738.567 -389.357)"/><path d="m-225.261 651.353c-1.915-6.123 6.232-15.493 11.253-9.418s9.488 11.735 6.607 12.941-15.471 4.115-17.86-3.523z" fill="#fabb00" stroke="#33383d" stroke-linecap="round" stroke-linejoin="round" stroke-width="3" transform="translate(742.225 -369.296)"/><path d="m-250.778 619.048c4.657-5.434 17.427-3.388 14.4 4.923s-5.958 15.858-8.536 13.881-11.673-12.025-5.864-18.804z" fill="#fabb00" stroke="#33383d" stroke-linecap="round" stroke-linejoin="round" stroke-width="3" transform="translate(783.745 -356.026)"/><path d="m-272.847 638.392c6.358 3.285 7.3 16.184-1.486 15.145s-16.8-2.158-15.47-5.122 9.024-14.12 16.956-10.023z" fill="#fabb00" stroke="#33383d" stroke-linecap="round" stroke-linejoin="round" stroke-width="3" transform="translate(832.345 -367.928)"/><path d="m-260.848 678.2c-.611 7.13-12.177 12.918-14.566 4.4s-4.413-16.356-1.165-16.254 16.494 2.954 15.731 11.854z" fill="#fabb00" stroke="#33383d" stroke-linecap="round" stroke-linejoin="round" stroke-width="3" transform="translate(820.045 -383.918)"/><path d="m-231.477 692.263c-5.628 4.422-17.754-.079-13.161-7.639s8.939-14.39 11.081-11.947 9.1 14.072 2.08 19.586z" fill="#fabb00" stroke="#33383d" stroke-linecap="round" stroke-linejoin="round" stroke-width="3" transform="translate(773.109 -387.148)"/><ellipse cx="6.274" cy="6.274" fill="#ff4f1f" rx="6.274" ry="6.274" stroke="#33383d" stroke-linecap="round" stroke-linejoin="round" stroke-width="3" transform="translate(532.828 280.397)"/><path d="m-468.689 898.3c-12.568 11.521-60.234-10.374-60.234-10.374" fill="none" stroke="#33383d" stroke-linecap="round" stroke-linejoin="round" stroke-width="3" transform="translate(1127.44 -484.321)"/><path d="m-536.059 794.08c.669 13.051-11.043 24.094-20.078 23.089s-15.727-14.055-14.389-21.082" fill="none" stroke="#33383d" stroke-linecap="round" stroke-linejoin="round" stroke-width="3" transform="translate(1225.595 -454.721)"/><path d="m-126.81 931.477s-26.436 14.055-29.448 23.424 4.685 28.779 8.366 33.129" fill="none" stroke="#33383d" stroke-linecap="round" stroke-linejoin="round" stroke-width="3" transform="translate(631.963 -530.88)"/><path d="m-138.865 1066.67c-6.024 0-12.382-4.351-12.382-8.366s13.385-4.685 19.074-3.012" fill="none" stroke="#33383d" stroke-linecap="round" stroke-linejoin="round" stroke-width="3" transform="translate(634.788 -599.037)"/><path d="m-317.235 970.379c3.374-2.049 17.45-1.36 21.579.959 3.262 1.832 12.21 14.588-.88 14.588s-25.782 4.729-26.972-2.364 1.797-10.462 6.273-13.183z" fill="none" stroke="#ff4f1f" stroke-linecap="round" stroke-linejoin="round" stroke-width="4" transform="translate(859.336 -547.313)"/><path d="m-280.64 935.5c3.4-.092 7.458 2.2 8 3.193 1.958 3.628-6.339 6.024-10.77 4.789-3.925-1.096-2.741-7.836 2.77-7.982z" fill="none" stroke="#ff4f1f" stroke-linecap="round" stroke-linejoin="round" stroke-width="4" transform="translate(834.899 -527.758)"/><path d="m-311.207 1027.688c3.135-.815 16.319-2.419 20.073-.254s8.486 8.911 1.305 9.42-23.336 2.036-23.336-1.273-.49-7.256 1.958-7.893z" fill="none" stroke="#ff4f1f" stroke-linecap="round" stroke-linejoin="round" stroke-width="4" transform="translate(857.777 -580.348)"/><path d="m382.711 537.216c-9.246 0-35.719 20.959-25.387 29.815s20.369 8.561 28.339 7.085 22.73-3.838 19.778-13.579-7.97-23.321-22.73-23.321z" fill="#92989f" stroke="#33383d" stroke-linecap="round" stroke-linejoin="round" stroke-width="3" transform="translate(304.011 -34.911)"/><path d="m382.466 447.038c-1.469 1.031-3.742 9.158-4.6 21.174s-.354 15.145-.172 17.969c.2 3.028.926 8.107 3.024 6.977s1.989-8.972 6.346-24.624c1.864-6.7 5.001-28.234-4.598-21.496z" fill="#62656a" stroke="#33383d" stroke-linecap="round" stroke-linejoin="round" stroke-width="3" transform="translate(310.395 14.271)"/><path d="m203.129 536.433c9.246 0 35.719 20.959 25.387 29.815s-20.369 8.561-28.339 7.085-22.73-3.837-19.778-13.579 7.97-23.321 22.73-23.321z" fill="#92989f" stroke="#33383d" stroke-linecap="round" stroke-linejoin="round" stroke-width="3" transform="translate(559.851 -34.49)"/><path d="m245.469 457.336c1.469 1.031 3.742 9.158 4.6 21.174s1.408 18.305 3.553 20.451 1.288 5.527-.81 4.4-7.584-8.874-11.94-24.526c-1.865-6.702-5.002-28.235 4.597-21.499z" fill="#62656a" stroke="#33383d" stroke-linecap="round" stroke-linejoin="round" stroke-width="3" transform="translate(508.65 8.733)"/><path d="m251.009 286.031c10.937.178 41.094 1.556 57.489 22.612s13.016 32.968 10.323 41.843.072 23.165-32.956 21.134c-31.5-1.937-53.22-8.014-68.312-6.763s-30.79 4.177-32.6-15.663-2.739-38.981 6.439-47.286 35.774-16.265 59.617-15.877z" fill="#92989f" stroke="#33383d" stroke-linecap="round" stroke-linejoin="round" stroke-width="3" transform="translate(467.914 100.155)"/><path d="m317.024 271.329c-.931-4.363 1.487-9.518 2.677-11.9s-20.523-5.949-19.631-1.785 2.677 4.461 2.38 8.328-7.45 9.756 3.75 10.374 11.937.202 10.824-5.017z" fill="#62656a" stroke="#33383d" stroke-linecap="round" stroke-linejoin="round" stroke-width="3" transform="translate(415.536 116.441)"/><path d="m235.669 118.458c-27.739 0-78.593 9.246-83.216 13.869s-4.623 9.246-4.623 27.739 0 23.116 13.869 23.116 60.1 0 92.462 4.623 41.608 9.246 50.854 0 9.246-50.854 0-55.478-46.23-13.869-69.346-13.869z" fill="#c3cad4" stroke="#33383d" stroke-linecap="round" stroke-linejoin="round" stroke-width="3" transform="translate(493.649 190.25)"/><path d="m230.3 151.236c-4.63-.984-22.438-2.852-31.008.543" fill="none" stroke="#33383d" stroke-linecap="round" stroke-linejoin="round" stroke-width="3" transform="translate(551.505 173.382)"/><path d="m392.393 149.033c4.657-.844 22.514-2.173 30.977 1.48" fill="none" stroke="#33383d" stroke-linecap="round" stroke-linejoin="round" stroke-width="3" transform="translate(269.165 174.319)"/><path d="m232.241 174.514c6.139 4.921 2.862 18.723-3.919 19.974s-23.627 2.232-27.137-6.271-3.171-15.72 5.234-17.862 16.899-2.995 25.822 4.159z" fill="#fdfdfd" stroke="#33383d" stroke-linecap="round" stroke-linejoin="round" stroke-width="3" transform="translate(546.418 163.164)"/><path d="m377.749 168.205c-6.679 4.157-5.066 18.251 1.519 20.3s23.2 5.023 27.69-3 5.016-15.233-3.075-18.358-16.424-4.985-26.134 1.058z" fill="#fdfdfd" stroke="#33383d" stroke-linecap="round" stroke-linejoin="round" stroke-width="3" transform="translate(291.096 165.639)"/><ellipse cx="6.517" cy="6.517" fill="#33383d" rx="6.517" ry="6.517" stroke="#33383d" stroke-miterlimit="10" stroke-width="3" transform="translate(759.407 336.384)"/><ellipse cx="1.445" cy="1.445" fill="#fdfdfd" rx="1.445" ry="1.445" transform="translate(762.721 339.589)"/><ellipse cx="6.517" cy="6.517" fill="#33383d" rx="6.517" ry="6.517" stroke="#33383d" stroke-miterlimit="10" stroke-width="3" transform="translate(679.901 333.381)"/><ellipse cx="1.445" cy="1.445" fill="#fdfdfd" rx="1.445" ry="1.445" transform="translate(683.215 336.586)"/><path d="m317.507 231.666c-3.849 1.107-11.575.445-21.222 1.8s-15.52 2.78-20.956 1.046" fill="none" stroke="#33383d" stroke-linecap="round" stroke-linejoin="round" stroke-width="3" transform="translate(429.148 129.379)"/><g stroke="#33383d" stroke-linecap="round" stroke-linejoin="round" stroke-width="3" transform="translate(687.139 260.525)"><path d="m333.1 79.315s-2.391-15.407-5.845-19.658-6.906-7.7-10.891-9.032l24.689 2.592-35.083-18.3" fill="none" transform="translate(-295.703 -25.358)"/><ellipse cx="6.508" cy="6.508" fill="#ff4f1f" rx="6.508" ry="6.508"/></g><path d="m171.062 375.2c1.086 5.975 21.38-22.91 13.4-38.695-10.38-20.54-36.925-22.591-36.925-22.591" fill="none" stroke="#33383d" stroke-linecap="round" stroke-linejoin="round" stroke-width="3" transform="translate(619.416 85.157)"/><path d="m182.267 444.562c11.47-7.2 25.27-6.278 27.383-.588s-7.349 16.336-14.092 19.243" fill="none" stroke="#33383d" stroke-linecap="round" stroke-linejoin="round" stroke-width="3" transform="translate(579.729 17.666)"/><path d="m472.148 307.155s-27.422 14.579-30.545 24.3 4.859 29.851 8.678 34.363" fill="none" stroke="#33383d" stroke-linecap="round" stroke-linejoin="round" stroke-width="3" transform="translate(197.966 88.79)"/><path d="m459.43 442.8c-6.248 0-12.843-4.513-12.843-8.678s13.884-4.86 19.785-3.124" fill="none" stroke="#33383d" stroke-linecap="round" stroke-linejoin="round" stroke-width="3" transform="translate(201.109 22.676)"/><path d="m301.384 327.112 15.46 18.036-15.46.859 12.024 21.472" fill="none" stroke="#ff4f1f" stroke-linecap="round" stroke-linejoin="round" stroke-width="6" transform="translate(417.766 78.06)"/><text fill="#ddd933" font-family="GloriaHallelujah, Gloria Hallelujah, Comic Sans MS, sans-serif" font-size="64" transform="translate(420 92)"><tspan x="7.156" y="90">Green Bot Go</tspan></text><text fill="#fdfdfd" font-family="GloriaHallelujah, Gloria Hallelujah, Comic Sans MS, sans-serif" font-size="32" transform="translate(424 64)"><tspan x="0" y="45">Oxi vs Carbo</tspan></text><text fill="#fdfdfd" font-family="GloriaHallelujah, Gloria Hallelujah, Comic Sans MS, sans-serif" font-size="32" transform="translate(-512 646)"><tspan x="163.953" y="45">&lt;- Back to Start</tspan></text></g></svg>